<svg width="3840" height="3840" viewBox="0 0 3840 3840" fill="none" xmlns="http://www.w3.org/2000/svg">
<g clip-path="url(#clip0_1_2)">
<path d="M3840 0H0V3840H3840V0Z" fill="white"/>
<path d="M3840 2028C3493.3 1961.6 3146.6 1895.3 2840 1732.1C2533.4 1568.8 2267.1 1308.8 2101 1004C1935 699.2 1869.3 349.6 1803.5 0H3840V2028Z" fill="#EDEFFC"/>
<path d="M3840 1690C3551.1 1634.7 3262.1 1579.4 3006.7 1443.4C2751.2 1307.4 2529.2 1090.7 2390.9 836.7C2252.5 582.7 2197.7 291.3 2142.9 0H3840V1690Z" fill="#CACFF6"/>
<path d="M3840 1352C3608.9 1307.8 3377.7 1263.5 3173.3 1154.7C2969 1045.9 2791.4 872.5 2680.7 669.3C2570 466.1 2526.2 233.1 2482.4 0H3840V1352Z" fill="#A4B0F0"/>
<path d="M3840 1014C3666.6 980.8 3493.3 947.6 3340 866C3186.7 784.4 3053.5 654.4 2970.5 502C2887.5 349.6 2854.6 174.8 2821.8 0H3840V1014Z" fill="#7A92E9"/>
<path d="M3840 676C3724.4 653.9 3608.9 631.8 3506.7 577.4C3404.5 522.9 3315.7 436.3 3260.3 334.7C3205 233.1 3183.1 116.5 3161.2 0H3840V676Z" fill="#4375E2"/>
<path d="M3840 338C3782.2 326.9 3724.4 315.9 3673.3 288.7C3622.2 261.5 3577.8 218.1 3550.2 167.3C3522.5 116.5 3511.5 58.3 3500.6 0H3840V338Z" fill="#0068DE"/>
</g>
<defs>
<clipPath id="clip0_1_2">
<rect width="3840" height="3840" fill="white"/>
</clipPath>
</defs>
</svg>
