<svg id="visual" viewBox="0 0 3840 3840" width="3840" height="3840" xmlns="http://www.w3.org/2000/svg" xmlns:xlink="http://www.w3.org/1999/xlink" version="1.1"><rect x="0" y="0" width="3840" height="3840" fill="#ffffff"></rect><defs><linearGradient id="grad1_0" x1="0%" y1="0%" x2="100%" y2="100%"><stop offset="30%" stop-color="#0068de" stop-opacity="1"></stop><stop offset="70%" stop-color="#0068de" stop-opacity="1"></stop></linearGradient></defs><defs><linearGradient id="grad1_1" x1="0%" y1="0%" x2="100%" y2="100%"><stop offset="30%" stop-color="#0068de" stop-opacity="1"></stop><stop offset="70%" stop-color="#6e8be7" stop-opacity="1"></stop></linearGradient></defs><defs><linearGradient id="grad1_2" x1="0%" y1="0%" x2="100%" y2="100%"><stop offset="30%" stop-color="#a4b0f0" stop-opacity="1"></stop><stop offset="70%" stop-color="#6e8be7" stop-opacity="1"></stop></linearGradient></defs><defs><linearGradient id="grad1_3" x1="0%" y1="0%" x2="100%" y2="100%"><stop offset="30%" stop-color="#a4b0f0" stop-opacity="1"></stop><stop offset="70%" stop-color="#d3d6f8" stop-opacity="1"></stop></linearGradient></defs><defs><linearGradient id="grad1_4" x1="0%" y1="0%" x2="100%" y2="100%"><stop offset="30%" stop-color="#ffffff" stop-opacity="1"></stop><stop offset="70%" stop-color="#d3d6f8" stop-opacity="1"></stop></linearGradient></defs><defs><linearGradient id="grad2_0" x1="0%" y1="0%" x2="100%" y2="100%"><stop offset="30%" stop-color="#0068de" stop-opacity="1"></stop><stop offset="70%" stop-color="#0068de" stop-opacity="1"></stop></linearGradient></defs><defs><linearGradient id="grad2_1" x1="0%" y1="0%" x2="100%" y2="100%"><stop offset="30%" stop-color="#6e8be7" stop-opacity="1"></stop><stop offset="70%" stop-color="#0068de" stop-opacity="1"></stop></linearGradient></defs><defs><linearGradient id="grad2_2" x1="0%" y1="0%" x2="100%" y2="100%"><stop offset="30%" stop-color="#6e8be7" stop-opacity="1"></stop><stop offset="70%" stop-color="#a4b0f0" stop-opacity="1"></stop></linearGradient></defs><defs><linearGradient id="grad2_3" x1="0%" y1="0%" x2="100%" y2="100%"><stop offset="30%" stop-color="#d3d6f8" stop-opacity="1"></stop><stop offset="70%" stop-color="#a4b0f0" stop-opacity="1"></stop></linearGradient></defs><defs><linearGradient id="grad2_4" x1="0%" y1="0%" x2="100%" y2="100%"><stop offset="30%" stop-color="#d3d6f8" stop-opacity="1"></stop><stop offset="70%" stop-color="#ffffff" stop-opacity="1"></stop></linearGradient></defs><g transform="translate(3840, 0)"><path d="M0 1629.2C-266.7 1557.8 -533.5 1486.5 -785 1359.7C-1036.5 1232.8 -1272.8 1050.4 -1410.9 814.6C-1549.1 578.7 -1589.1 289.4 -1629.2 0L0 0Z" fill="#e9ebfc"></path><path d="M0 1303.3C-213.4 1246.3 -426.8 1189.2 -628 1087.7C-829.2 986.2 -1018.2 840.4 -1128.7 651.7C-1239.2 463 -1271.3 231.5 -1303.3 0L0 0Z" fill="#bcc3f4"></path><path d="M0 977.5C-160 934.7 -320.1 891.9 -471 815.8C-621.9 739.7 -763.7 630.3 -846.5 488.8C-929.4 347.2 -953.5 173.6 -977.5 0L0 0Z" fill="#8b9dec"></path><path d="M0 651.7C-106.7 623.1 -213.4 594.6 -314 543.9C-414.6 493.1 -509.1 420.2 -564.4 325.8C-619.6 231.5 -635.6 115.7 -651.7 0L0 0Z" fill="#4c79e3"></path><path d="M0 325.8C-53.3 311.6 -106.7 297.3 -157 271.9C-207.3 246.6 -254.6 210.1 -282.2 162.9C-309.8 115.7 -317.8 57.9 -325.8 0L0 0Z" fill="#0068de"></path></g><g transform="translate(0, 3840)"><path d="M0 -1629.2C284.1 -1586.1 568.1 -1542.9 814.6 -1410.9C1061.1 -1278.9 1270 -1058 1399.5 -808C1529 -558 1579.1 -279 1629.2 0L0 0Z" fill="#e9ebfc"></path><path d="M0 -1303.3C227.2 -1268.8 454.5 -1234.3 651.7 -1128.7C848.9 -1023.1 1016 -846.4 1119.6 -646.4C1223.2 -446.4 1263.3 -223.2 1303.3 0L0 0Z" fill="#bcc3f4"></path><path d="M0 -977.5C170.4 -951.6 340.9 -925.8 488.8 -846.5C636.6 -767.3 762 -634.8 839.7 -484.8C917.4 -334.8 947.5 -167.4 977.5 0L0 0Z" fill="#8b9dec"></path><path d="M0 -651.7C113.6 -634.4 227.2 -617.2 325.8 -564.4C424.4 -511.6 508 -423.2 559.8 -323.2C611.6 -223.2 631.6 -111.6 651.7 0L0 0Z" fill="#4c79e3"></path><path d="M0 -325.8C56.8 -317.2 113.6 -308.6 162.9 -282.2C212.2 -255.8 254 -211.6 279.9 -161.6C305.8 -111.6 315.8 -55.8 325.8 0L0 0Z" fill="#0068de"></path></g></svg>